<svg id="Layer_1" data-name="Layer 1" xmlns="http://www.w3.org/2000/svg" viewBox="0 0 72 72"><defs><style>.cls-1{fill:#9146ff;}.cls-2{font-size:59.11px;fill:#fff;font-family:FontAwesome6Brands-Regular, "Font Awesome 6 Brands";}</style></defs><rect class="cls-1" x="0.5" y="0.5" width="71" height="71" rx="7.5"/><path class="cls-1" d="M64,1a7,7,0,0,1,7,7V64a7,7,0,0,1-7,7H8a7,7,0,0,1-7-7V8A7,7,0,0,1,8,1H64m0-1H8A8,8,0,0,0,0,8V64a8,8,0,0,0,8,8H64a8,8,0,0,0,8-8V8a8,8,0,0,0-8-8Z"/><text class="cls-2" transform="translate(6.32 58.17)">twitch</text></svg>